<svg width="28" height="26" viewBox="0 0 28 26" fill="none" xmlns="http://www.w3.org/2000/svg">
<path d="M9.6 4C9.6 2.34315 10.9431 1 12.6 1C14.2569 1 15.6 2.34315 15.6 4V5.8H16.8C18.4774 5.8 19.3161 5.8 19.9777 6.07403C20.8598 6.43941 21.5606 7.14024 21.926 8.02234C22.2 8.68392 22.2 9.52261 22.2 11.2H24C25.6569 11.2 27 12.5431 27 14.2C27 15.8569 25.6569 17.2 24 17.2H22.2V19.24C22.2 21.2562 22.2 22.2643 21.8076 23.0344C21.4625 23.7117 20.9118 24.2625 20.2344 24.6076C19.4643 25 18.4562 25 16.44 25H15.6V22.9C15.6 21.4088 14.3912 20.2 12.9 20.2C11.4088 20.2 10.2 21.4088 10.2 22.9V25H8.76C6.74381 25 5.73572 25 4.96563 24.6076C4.28825 24.2625 3.73752 23.7117 3.39238 23.0344C3 22.2643 3 21.2562 3 19.24V17.2H4.8C6.45685 17.2 7.8 15.8569 7.8 14.2C7.8 12.5431 6.45685 11.2 4.8 11.2H3C3 9.52261 3 8.68392 3.27403 8.02234C3.63941 7.14024 4.34024 6.43941 5.22234 6.07403C5.88392 5.8 6.72261 5.8 8.4 5.8H9.6V4Z" stroke="white" stroke-width="2" stroke-linecap="round" stroke-linejoin="round"/>
</svg>
